<?xml version="1.0" encoding="utf-8"?>
<!-- Generator: Adobe Illustrator 24.3.0, SVG Export Plug-In . SVG Version: 6.00 Build 0)  -->
<svg version="1.1" id="Layer_1" xmlns="http://www.w3.org/2000/svg" xmlns:xlink="http://www.w3.org/1999/xlink" x="0px" y="0px"
	 viewBox="0 0 400 400" style="enable-background:new 0 0 400 400;" xml:space="preserve">
<style type="text/css">
	.st0{fill:#CE0033;}
</style>
<g>
	<path class="st0" d="M207,73c34.72,0,67.37,13.52,91.92,38.08C323.48,135.63,337,168.28,337,203s-13.52,67.37-38.08,91.92
		C274.37,319.48,241.72,333,207,333s-67.37-13.52-91.92-38.08C90.52,270.37,77,237.72,77,203s13.52-67.37,38.08-91.92
		C139.63,86.52,172.28,73,207,73 M207,53c-82.84,0-150,67.16-150,150s67.16,150,150,150s150-67.16,150-150S289.84,53,207,53L207,53z
		"/>
</g>
<g>
	<rect x="184" y="129" class="st0" width="46" height="46"/>
</g>
<g>
	<rect x="184" y="225" class="st0" width="46" height="46"/>
</g>
</svg>
