<svg id="Layer_1" data-name="Layer 1" xmlns="http://www.w3.org/2000/svg" viewBox="0 0 374 369"><defs><style>.cls-1{fill:#ce0033;}</style></defs><path class="cls-1" d="M204,49A154.22,154.22,0,0,1,313.05,93.53a149.76,149.76,0,0,1,0,213.94,155.79,155.79,0,0,1-218.1,0A149.76,149.76,0,0,1,95,93.53,154.22,154.22,0,0,1,204,49m0-33C100.72,16,17,98.6,17,200.5S100.72,385,204,385s187-82.6,187-184.5S307.28,16,204,16Z" transform="translate(-17 -16)"/><rect class="cls-1" x="156.33" y="96.48" width="57.35" height="56.58"/><rect class="cls-1" x="156.33" y="214.56" width="57.35" height="56.58"/></svg>