<svg id="Layer_1" data-name="Layer 1" xmlns="http://www.w3.org/2000/svg" viewBox="0 0 300 300"><path d="M207,73a130,130,0,1,1-91.92,38.08A129.12,129.12,0,0,1,207,73m0-20A150,150,0,1,0,357,203,150,150,0,0,0,207,53Z" transform="translate(-57 -53)"/><rect x="137" y="86" width="26" height="26"/><path d="M210,149v6h-6v-6h6m20-20H184v46h46V129Z" transform="translate(-57 -53)"/><rect x="137" y="182" width="26" height="26"/><path d="M210,245v6h-6v-6h6m20-20H184v46h46V225Z" transform="translate(-57 -53)"/></svg>